<svg width="792" height="677" viewBox="0 0 792 677" fill="none" xmlns="http://www.w3.org/2000/svg">
<path d="M340.771 275.4C362.371 283.2 378.721 290.1 389.821 296.1C400.921 301.8 409.771 309.9 416.371 320.4C423.271 330.6 426.721 344.4 426.721 361.8C426.721 378.6 422.071 393.45 412.771 406.35C403.771 419.25 390.871 429.45 374.071 436.95C357.271 444.15 337.921 447.75 316.021 447.75C310.921 447.75 304.771 447.15 297.571 445.95C294.571 445.65 292.471 444.9 291.271 443.7C290.071 442.2 289.771 440.1 290.371 437.4L292.171 424.35C292.471 421.95 292.771 419.25 293.071 416.25C293.371 412.95 293.821 409.95 294.421 407.25C295.021 402.45 297.871 400.05 302.971 400.05L321.871 400.5C336.871 400.5 349.021 397.05 358.321 390.15C367.921 383.25 372.721 374.7 372.721 364.5C372.721 357 370.171 349.65 365.071 342.45C361.771 338.25 355.771 334.2 347.071 330.3C338.371 326.4 326.521 322.05 311.521 317.25C288.721 309.45 270.121 302.25 255.721 295.65C241.621 288.75 231.121 280.35 224.221 270.45C215.821 257.25 211.621 243.6 211.621 229.5C211.621 214.8 215.821 200.85 224.221 187.65C232.921 174.45 244.921 163.5 260.221 154.8C275.521 145.8 293.071 140.25 312.871 138.15C327.271 137.55 341.371 138.45 355.171 140.85C368.971 143.25 380.971 146.85 391.171 151.65C400.471 156.45 409.171 162.3 417.271 169.2C418.771 170.4 419.971 171.75 420.871 173.25C421.771 174.75 422.071 175.8 421.771 176.4C420.271 179.7 415.171 187.5 406.471 199.8L401.071 207.45C400.171 208.35 398.821 208.8 397.021 208.8C395.521 208.8 394.021 208.35 392.521 207.45C380.221 200.55 369.571 195.9 360.571 193.5C350.071 190.5 339.571 189 329.071 189C316.771 189 305.221 191.1 294.421 195.3C286.321 199.2 279.871 204 275.071 209.7C270.571 215.1 268.321 220.65 268.321 226.35C268.321 235.35 273.571 243.15 284.071 249.75C288.271 252.45 296.521 256.65 308.821 262.35C321.421 268.05 332.071 272.4 340.771 275.4ZM401.071 207.45C401.071 207.15 401.071 207 401.071 207C401.371 207 401.521 207 401.521 207L401.071 207.45ZM240.421 385.65C241.321 386.25 241.921 387 242.221 387.9C242.821 388.8 242.971 389.85 242.671 391.05L231.871 421.2C231.271 422.7 230.221 423.75 228.721 424.35C227.221 424.95 225.571 424.8 223.771 423.9C213.571 419.4 206.671 415.65 203.071 412.65C201.571 411.15 200.821 409.95 200.821 409.05C200.821 407.25 202.171 403.95 204.871 399.15C207.571 394.05 211.321 387.45 216.121 379.35C217.621 377.25 219.721 376.95 222.421 378.45L240.421 385.65Z" fill="#E5E5E5"/>
<path d="M743.221 228C745.554 228 747.554 229 749.221 231C750.887 232.667 751.721 234.833 751.721 237.5V567.5C751.721 570.167 750.887 572.333 749.221 574C747.554 575.667 745.554 576.5 743.221 576.5H693.721C691.387 576.5 689.387 575.667 687.721 574C686.054 572.333 685.221 570.167 685.221 567.5V369.5C685.221 366.5 684.554 365 683.221 365C682.221 365 680.721 366.167 678.721 368.5C673.387 376.5 664.554 389 652.221 406C640.221 423 631.387 435.333 625.721 443C622.387 447.333 619.554 450.167 617.221 451.5C615.221 452.833 611.721 453.5 606.721 453.5H598.221C592.221 453.5 588.054 453 585.721 452C583.721 451 581.387 448.833 578.721 445.5L524.221 369C522.887 366 521.387 364.5 519.721 364.5C518.387 364.5 517.721 366 517.721 369V431C517.721 433.667 516.887 435.833 515.221 437.5C513.554 439.167 511.554 440 509.221 440H460.221C457.887 440 455.721 439.167 453.721 437.5C452.054 435.5 451.221 433.333 451.221 431V237.5C451.221 234.833 452.054 232.667 453.721 231C455.721 229 457.887 228 460.221 228H510.221C511.221 228 512.387 228.667 513.721 230C515.387 231 516.554 232.167 517.221 233.5L593.221 359C593.554 359.667 594.387 360.667 595.721 362C597.387 363.333 599.387 364 601.721 364H602.221C604.554 364 606.387 363.167 607.721 361.5C609.054 359.833 609.887 358.667 610.221 358L685.721 234C686.721 232.333 687.721 231 688.721 230C689.721 228.667 691.054 228 692.721 228H693.221H743.221Z" fill="#E5E5E5"/>
<path d="M116.222 188.5C171.422 99.7 271.888 81.5 315.222 83.5C107.223 40.9999 24.2212 222.5 17.7212 239.5C11.2212 256.5 -53.2788 436 112.722 548C245.522 637.6 375.388 576.667 423.721 535C277.721 601.5 147.722 515.5 112.722 451.5C77.7216 387.5 47.2216 299.5 116.222 188.5Z" fill="url(#paint0_radial_5_173)"/>
<defs>
<radialGradient id="paint0_radial_5_173" cx="0" cy="0" r="1" gradientUnits="userSpaceOnUse" gradientTransform="translate(50.7207 147.5) rotate(54.1771) scale(525.388 430.446)">
<stop stop-color="#0A5D66"/>
<stop offset="1" stop-color="#0EB9CB"/>
</radialGradient>
</defs>
</svg>
